<svg width="100%" viewBox="0 0 680 220" xmlns="http://www.w3.org/2000/svg" role="img" aria-label="Vivek Kumar animated profile banner">
  <style>
    @keyframes drift {
      0%, 100% { transform: translateY(0); opacity: 0.72; }
      50% { transform: translateY(-8px); opacity: 1; }
    }

    @keyframes pulse {
      0%, 100% { opacity: 0.2; transform: scale(1); }
      50% { opacity: 0.45; transform: scale(1.04); }
    }

    @keyframes glow {
      0%, 100% { opacity: 0.65; }
      50% { opacity: 1; }
    }

    @keyframes slide {
      0% { transform: translateX(-160px); opacity: 0; }
      20%, 80% { opacity: 0.35; }
      100% { transform: translateX(680px); opacity: 0; }
    }

    @keyframes cursor {
      0%, 45% { opacity: 1; }
      46%, 100% { opacity: 0; }
    }

    .float-a { animation: drift 4s ease-in-out infinite; transform-origin: center; }
    .float-b { animation: drift 5.5s ease-in-out infinite reverse; transform-origin: center; }
    .pulse { animation: pulse 3.2s ease-in-out infinite; transform-origin: 580px -30px; }
    .glow { animation: glow 2.4s ease-in-out infinite; }
    .scan { animation: slide 6s linear infinite; }
    .cursor { animation: cursor 1s steps(1) infinite; }
  </style>
  <defs>
    <linearGradient id="bg" x1="0%" y1="0%" x2="100%" y2="100%">
      <stop offset="0%" stop-color="#0f0c29"/>
      <stop offset="50%" stop-color="#1a1040"/>
      <stop offset="100%" stop-color="#0d1b3e"/>
    </linearGradient>
    <linearGradient id="accent" x1="0%" y1="0%" x2="100%" y2="0%">
      <stop offset="0%" stop-color="#a78bfa"/>
      <stop offset="100%" stop-color="#60a5fa"/>
    </linearGradient>
    <linearGradient id="nameGrad" x1="0%" y1="0%" x2="100%" y2="0%">
      <stop offset="0%" stop-color="#ffffff"/>
      <stop offset="60%" stop-color="#e0d7ff"/>
      <stop offset="100%" stop-color="#a78bfa"/>
    </linearGradient>
  </defs>

  <rect width="680" height="220" fill="url(#bg)"/>
  <rect class="glow" x="0" y="0" width="680" height="3" fill="url(#accent)"/>
  <rect class="glow" x="0" y="217" width="680" height="3" fill="url(#accent)" opacity="0.5"/>
  <rect class="scan" x="0" y="0" width="120" height="220" fill="#ffffff" opacity="0.08"/>

  <g class="pulse">
    <circle cx="580" cy="-30" r="130" fill="none" stroke="#a78bfa" stroke-width="0.5" opacity="0.25"/>
    <circle cx="580" cy="-30" r="90" fill="none" stroke="#60a5fa" stroke-width="0.5" opacity="0.2"/>
    <circle cx="580" cy="-30" r="55" fill="#a78bfa" opacity="0.07"/>
  </g>
  <g class="float-b">
    <circle cx="-20" cy="200" r="100" fill="none" stroke="#60a5fa" stroke-width="0.5" opacity="0.15"/>
    <circle cx="-20" cy="200" r="60" fill="#60a5fa" opacity="0.05"/>
  </g>

  <g class="float-a" opacity="0.08">
    <circle cx="420" cy="40" r="1.2" fill="#a78bfa"/>
    <circle cx="450" cy="40" r="1.2" fill="#a78bfa"/>
    <circle cx="480" cy="40" r="1.2" fill="#a78bfa"/>
    <circle cx="510" cy="40" r="1.2" fill="#a78bfa"/>
    <circle cx="540" cy="40" r="1.2" fill="#a78bfa"/>
    <circle cx="570" cy="40" r="1.2" fill="#a78bfa"/>
    <circle cx="600" cy="40" r="1.2" fill="#a78bfa"/>
    <circle cx="420" cy="70" r="1.2" fill="#a78bfa"/>
    <circle cx="450" cy="70" r="1.2" fill="#a78bfa"/>
    <circle cx="480" cy="70" r="1.2" fill="#a78bfa"/>
    <circle cx="510" cy="70" r="1.2" fill="#a78bfa"/>
    <circle cx="540" cy="70" r="1.2" fill="#a78bfa"/>
    <circle cx="570" cy="70" r="1.2" fill="#a78bfa"/>
    <circle cx="600" cy="70" r="1.2" fill="#a78bfa"/>
    <circle cx="420" cy="100" r="1.2" fill="#a78bfa"/>
    <circle cx="450" cy="100" r="1.2" fill="#a78bfa"/>
    <circle cx="480" cy="100" r="1.2" fill="#a78bfa"/>
    <circle cx="510" cy="100" r="1.2" fill="#a78bfa"/>
    <circle cx="540" cy="100" r="1.2" fill="#a78bfa"/>
    <circle cx="570" cy="100" r="1.2" fill="#a78bfa"/>
    <circle cx="600" cy="100" r="1.2" fill="#a78bfa"/>
  </g>

  <g class="float-b" opacity="0.06" stroke="#60a5fa" stroke-width="0.8">
    <line x1="400" y1="130" x2="680" y2="130"/>
    <line x1="410" y1="145" x2="680" y2="145"/>
    <line x1="430" y1="160" x2="680" y2="160"/>
    <line x1="440" y1="175" x2="680" y2="175"/>
  </g>

  <circle class="glow" cx="88" cy="108" r="52" fill="#1e1550" stroke="url(#accent)" stroke-width="2"/>
  <circle cx="88" cy="108" r="45" fill="#2a1d6e" opacity="0.7"/>
  <text x="88" y="116" text-anchor="middle" fill="url(#nameGrad)" font-size="26" font-weight="700" font-family="monospace">VK</text>

  <text x="164" y="82" fill="url(#nameGrad)" font-size="36" font-weight="700" font-family="Segoe UI, Arial, sans-serif">Vivek Kumar</text>
  <rect x="164" y="89" width="210" height="2" rx="1" fill="url(#accent)" opacity="0.7"/>
  <rect x="164" y="102" width="194" height="24" rx="12" fill="#a78bfa" opacity="0.15" stroke="#a78bfa" stroke-width="0.8"/>
  <text x="261" y="118" text-anchor="middle" fill="#c4b5fd" font-size="12" font-family="Segoe UI, Arial, sans-serif" font-weight="500">B.Tech CSE  -  SISTec, Bhopal</text>

  <line x1="164" y1="138" x2="390" y2="138" stroke="#a78bfa" stroke-width="0.5" opacity="0.3"/>
  <circle cx="172" cy="154" r="4" fill="#60a5fa" opacity="0.7"/>
  <text x="183" y="158" fill="#94a3b8" font-size="12" font-family="Segoe UI, Arial, sans-serif">Bhopal, Madhya Pradesh, India</text>
  <circle cx="172" cy="174" r="4" fill="#a78bfa" opacity="0.7"/>
  <text x="183" y="178" fill="#94a3b8" font-size="12" font-family="Segoe UI, Arial, sans-serif">Full-Stack Dev  -  Java &amp; DSA  -  AI Systems</text>
  <circle cx="172" cy="194" r="4" fill="#34d399" opacity="0.7"/>
  <text x="183" y="198" fill="#94a3b8" font-size="12" font-family="Segoe UI, Arial, sans-serif">vk9213587@gmail.com</text>
  <rect class="cursor" x="318" y="186" width="2" height="14" fill="#34d399" opacity="0.9"/>

  <rect x="164" y="206" width="48" height="14" rx="7" fill="#1e1550" stroke="#a78bfa" stroke-width="0.8"/>
  <text x="188" y="217" text-anchor="middle" fill="#c4b5fd" font-size="9" font-family="monospace">React.js</text>
  <rect x="218" y="206" width="44" height="14" rx="7" fill="#1e1550" stroke="#60a5fa" stroke-width="0.8"/>
  <text x="240" y="217" text-anchor="middle" fill="#93c5fd" font-size="9" font-family="monospace">Node.js</text>
  <rect x="268" y="206" width="44" height="14" rx="7" fill="#1e1550" stroke="#34d399" stroke-width="0.8"/>
  <text x="290" y="217" text-anchor="middle" fill="#6ee7b7" font-size="9" font-family="monospace">MongoDB</text>
  <rect x="318" y="206" width="32" height="14" rx="7" fill="#1e1550" stroke="#fb923c" stroke-width="0.8"/>
  <text x="334" y="217" text-anchor="middle" fill="#fdba74" font-size="9" font-family="monospace">Java</text>
  <rect x="356" y="206" width="32" height="14" rx="7" fill="#1e1550" stroke="#f472b6" stroke-width="0.8"/>
  <text x="372" y="217" text-anchor="middle" fill="#f9a8d4" font-size="9" font-family="monospace">Flask</text>
</svg>
